<?xml version="1.0" encoding="UTF-8"?>
<!DOCTYPE svg PUBLIC "-//W3C//DTD SVG 1.1//EN" "http://www.w3.org/Graphics/SVG/1.1/DTD/svg11.dtd">
<!-- Creator: CorelDRAW (Evaluation Version) -->
<svg xmlns="http://www.w3.org/2000/svg" xml:space="preserve" width="2.12602in" height="0.230004in" version="1.1" style="shape-rendering:geometricPrecision; text-rendering:geometricPrecision; image-rendering:optimizeQuality; fill-rule:evenodd; clip-rule:evenodd"
viewBox="0 0 143.63 15.54"
 xmlns:xlink="http://www.w3.org/1999/xlink"
 xmlns:xodm="http://www.corel.com/coreldraw/odm/2003">
 <defs>
  <style type="text/css">
   <![CDATA[
    .fil0 {fill:white;fill-rule:nonzero}
   ]]>
  </style>
 </defs>
 <g id="Layer_x0020_1">
  <metadata id="CorelCorpID_0Corel-Layer"/>
  <path class="fil0" d="M7.27 15.31c4.84,0 7.9,-2.81 7.9,-7.54 0,-4.73 -3.06,-7.54 -7.9,-7.54l-7.27 0 0 15.09 7.27 0zm0 -12.05c3.06,0 4.3,0.88 4.3,4.5 0,3.63 -1.24,4.5 -4.3,4.5l-3.9 0 0 -9.01 3.9 0zm12.75 -0.38l0 -2.66 -3.38 0 0 2.66 3.38 0zm0 12.43l0 -11.28 -3.38 0 0 11.28 3.38 0zm7.48 0.23c3.49,0 5.58,-1.4 5.58,-3.51 0,-1.87 -1.13,-2.88 -4.14,-3.22l-2.41 -0.29c-1.49,-0.18 -1.8,-0.43 -1.8,-1.01 0,-0.72 0.43,-1.01 2.12,-1.01 2.07,0 2.52,0.47 2.52,1.4l0 0.14 3.38 0 0 -0.07c0,-2.75 -2.09,-4.14 -5.79,-4.14 -3.87,0 -5.56,1.58 -5.56,3.56 0,1.89 1.26,2.9 3.51,3.15l3.18 0.38c1.33,0.18 1.67,0.36 1.67,0.99 0,0.68 -0.43,0.97 -2.23,0.97 -1.91,0 -2.54,-0.27 -2.54,-1.28l0 -0.2 -3.38 0 0 0.07c0,2.61 2.09,4.1 5.9,4.1zm14.91 -0.23l0 -3.04 -2.03 0c-1.19,0 -1.62,-0.29 -1.62,-1.42l0 -4.03 3.65 0 0 -2.79 -3.65 0 0 -2.18 -3.38 0 0 2.18 -1.78 0 0 2.79 1.78 0 0 4.41c0,2.84 1.6,4.08 4.23,4.08l2.79 0zm4.64 0l0 -6.53c0,-1.42 0.54,-2.12 2.05,-2.12 1.37,0 1.87,0.54 1.87,1.78l0 1.17 3.38 0 0 -1.87c0,-2.21 -1.04,-3.94 -3.56,-3.94 -2.27,0 -3.47,1.4 -3.78,3.22l-0.2 0 0 -3 -3.13 0 0 11.28 3.38 0zm14.52 0.23c3.85,0 6.44,-2.3 6.44,-5.86 0,-3.6 -2.59,-5.88 -6.44,-5.88 -3.85,0 -6.44,2.27 -6.44,5.88 0,3.56 2.59,5.86 6.44,5.86zm0 -3c-2.3,0 -3.09,-0.88 -3.09,-2.86 0,-1.98 0.79,-2.9 3.09,-2.9 2.27,0 3.09,0.92 3.09,2.9 0,1.98 -0.81,2.86 -3.09,2.86zm18.13 3c4.8,0 6.71,-2.21 6.71,-4.66 0,-2.07 -1.22,-3.72 -4.59,-4.26l-4.23 -0.68c-1.26,-0.23 -1.76,-0.54 -1.76,-1.42 0,-0.97 0.74,-1.44 3.18,-1.44 2.99,0 3.74,0.61 3.74,2.05l0 0.32 3.4 0 0 -0.14c0,-3.18 -2.16,-5.31 -6.8,-5.31 -5.07,0 -6.91,2.39 -6.91,4.66 0,2.45 1.6,3.81 4.3,4.23l4.23 0.61c1.55,0.27 2.07,0.61 2.07,1.53 0,1.01 -0.63,1.42 -3.33,1.42 -3.06,0 -3.76,-0.56 -3.76,-1.96l0 -0.41 -3.38 0 0 0.14c0,3.51 2.57,5.31 7.14,5.31zm16.03 -0.23l0 -3.04 -2.03 0c-1.19,0 -1.62,-0.29 -1.62,-1.42l0 -4.03 3.65 0 0 -2.79 -3.65 0 0 -2.18 -3.38 0 0 2.18 -1.78 0 0 2.79 1.78 0 0 4.41c0,2.84 1.6,4.08 4.23,4.08l2.79 0zm5.92 0.23c2.97,0 4.35,-1.78 4.64,-3.67l0.18 0 0 3.45 3.15 0 0 -11.28 -3.38 0 0 5.72c0,1.91 -0.79,2.77 -3,2.77 -2.14,0 -2.9,-0.77 -2.9,-2.59l0 -5.9 -3.38 0 0 7.03c0,2.52 1.51,4.48 4.68,4.48zm14.75 0c2.59,0 4.08,-1.13 4.5,-3.36l0.18 0 0 3.13 3.15 0 0 -15.09 -3.38 0 0 6.8 -0.2 0c-0.38,-1.89 -1.76,-3.22 -4.44,-3.22 -3.36,0 -5.27,2.27 -5.27,5.88 0,3.56 1.94,5.86 5.45,5.86zm-2.03 -5.86c0,-2.07 1.01,-2.79 3.18,-2.79 2.16,0 3.31,0.72 3.31,2.68l0 0.18c0,1.96 -1.17,2.7 -3.31,2.7 -2.16,0 -3.18,-0.72 -3.18,-2.77zm15.02 -6.8l0 -2.66 -3.38 0 0 2.66 3.38 0zm0 12.43l0 -11.28 -3.38 0 0 11.28 3.38 0zm7.79 0.23c3.85,0 6.44,-2.3 6.44,-5.86 0,-3.6 -2.59,-5.88 -6.44,-5.88 -3.85,0 -6.44,2.27 -6.44,5.88 0,3.56 2.59,5.86 6.44,5.86zm0 -3c-2.3,0 -3.09,-0.88 -3.09,-2.86 0,-1.98 0.79,-2.9 3.09,-2.9 2.27,0 3.09,0.92 3.09,2.9 0,1.98 -0.81,2.86 -3.09,2.86z"/>
 </g>
</svg>
