<?xml version="1.0" encoding="UTF-8"?>
<!DOCTYPE svg PUBLIC "-//W3C//DTD SVG 1.1//EN" "http://www.w3.org/Graphics/SVG/1.1/DTD/svg11.dtd">
<!-- Creator: CorelDRAW -->
<svg xmlns="http://www.w3.org/2000/svg" xml:space="preserve" width="0.403295in" height="0.721953in" version="1.1" style="shape-rendering:geometricPrecision; text-rendering:geometricPrecision; image-rendering:optimizeQuality; fill-rule:evenodd; clip-rule:evenodd"
viewBox="0 0 23.62 42.28"
 xmlns:xlink="http://www.w3.org/1999/xlink"
 xmlns:xodm="http://www.corel.com/coreldraw/odm/2003">
 <defs>
  <style type="text/css">
   <![CDATA[
    .fil0 {fill:#0693FF}
   ]]>
  </style>
 </defs>
 <g id="Layer_x0020_1">
  <metadata id="CorelCorpID_0Corel-Layer"/>
  <path class="fil0" d="M2.65 42.28c0.84,-0.36 1.7,-0.79 2.38,-1.12 1.03,-0.5 2.05,-1.04 3.07,-1.55l-0.66 -2.03c-1.3,-4.02 -2.56,-10.45 1.58,-13.27 3.05,-2.07 10,-3.66 14.59,-4.05l-0.29 -5.85c-7.46,0.98 -18.49,2.15 -21.82,9.19 -0.18,0.37 -0.31,0.75 -0.46,1.13 -2.45,6.24 -0.03,11.64 1.61,17.55zm16.01 -36.21c-0.44,-2.02 -0.88,-4.05 -1.33,-6.07 -5.6,1.33 -11.18,2.73 -16.77,4.06 0.02,0.09 0.04,0.17 0.06,0.26 0.22,0.96 0.47,1.92 0.71,2.88 0.24,0.94 0.48,1.89 0.71,2.84l5.56 -1.28c2.51,-0.64 5.04,-1.3 7.6,-1.83 1.16,-0.24 2.3,-0.57 3.45,-0.85z"/>
 </g>
</svg>
